<svg xmlns="http://www.w3.org/2000/svg" viewBox="0 0 300 300"><title>Artboard 2 copyCP-Logo</title><path d="M196.47,253.56A111.49,111.49,0,0,1,160,257c-52.9-3.66-96.7-45.52-102.47-98.23A111.21,111.21,0,0,1,199.17,39.4a4.61,4.61,0,0,1,2.09,7.6L109.7,143.23a4.57,4.57,0,0,0,0,6.26L198.72,246A4.61,4.61,0,0,1,196.47,253.56Z" style="fill:none;stroke:#2c2c2d;stroke-linecap:round;stroke-linejoin:round;stroke-width:6px"/><rect x="159.58" y="126.37" width="41.03" height="41.03" transform="translate(-51.68 163.94) rotate(-43.41)" style="fill:none;stroke:#2c2c2d;stroke-linecap:round;stroke-linejoin:round;stroke-width:4px"/><rect x="187.63" y="178.49" width="9.69" height="9.69" transform="translate(-73.34 182.43) rotate(-43.41)" style="fill:none;stroke:#2c2c2d;stroke-linecap:round;stroke-linejoin:round;stroke-width:3px"/><rect x="197.28" y="192.81" width="3.7" height="3.7" transform="translate(-79.3 190.1) rotate(-43.41)" style="fill:none;stroke:#2c2c2d;stroke-linecap:round;stroke-linejoin:round"/><line x1="191.21" y1="109.5" x2="191.21" y2="103.46" style="fill:none;stroke:#2c2c2d;stroke-linecap:round;stroke-linejoin:round;stroke-width:2px"/><line x1="227.42" y1="139.32" x2="221.4" y2="139.32" style="fill:none;stroke:#2c2c2d;stroke-linecap:round;stroke-linejoin:round;stroke-width:2px"/><line x1="209.32" y1="121.57" x2="221.39" y2="109.5" style="fill:none;stroke:#2c2c2d;stroke-linecap:round;stroke-linejoin:round;stroke-width:2px"/></svg>